<svg width="47" height="12" viewBox="0 0 47 12" fill="none" xmlns="http://www.w3.org/2000/svg">
<path d="M9.207 10.7365C9.207 10.9122 8.68517 11 7.6415 11C6.59783 11 6.076 10.9122 6.076 10.7365V7.1715H3.906V10.7365C3.906 10.9122 3.38417 11 2.3405 11C1.29683 11 0.775 10.9122 0.775 10.7365V0.46C0.775 0.243 1.29683 0.134499 2.3405 0.134499C3.38417 0.134499 3.906 0.243 3.906 0.46V4.1025H6.076V0.490999C6.076 0.346333 6.33433 0.243 6.851 0.181C7.11967 0.160333 7.38317 0.149999 7.6415 0.149999L8.432 0.181C8.94867 0.243 9.207 0.346333 9.207 0.490999V10.7365ZM13.9741 10.907C13.9741 10.9897 13.4988 11.031 12.5481 11.031C11.6078 11.031 11.1376 10.9948 11.1376 10.9225V3.312C11.1376 3.23967 11.6078 3.2035 12.5481 3.2035C13.4988 3.2035 13.9741 3.2345 13.9741 3.2965V10.907ZM13.9741 2.382C13.9741 2.45433 13.4988 2.4905 12.5481 2.4905C11.6078 2.4905 11.1376 2.4595 11.1376 2.3975V0.165499C11.1376 0.0621658 11.6078 0.0104992 12.5481 0.0104992C13.4988 0.0104992 13.9741 0.0414994 13.9741 0.1035V2.382ZM20.5839 10.752C20.5839 10.9587 20.0724 11.062 19.0494 11.062C18.0264 11.062 17.5149 10.9587 17.5149 10.752V2.971H15.6549C15.4792 2.971 15.3552 2.73333 15.2829 2.258C15.2519 2.03067 15.2364 1.79817 15.2364 1.5605C15.2364 1.32283 15.2519 1.09033 15.2829 0.862999C15.3552 0.387666 15.4792 0.149999 15.6549 0.149999H22.3974C22.573 0.149999 22.697 0.387666 22.7694 0.862999C22.8004 1.09033 22.8159 1.32283 22.8159 1.5605C22.8159 1.79817 22.8004 2.03067 22.7694 2.258C22.697 2.73333 22.573 2.971 22.3974 2.971H20.5839V10.752ZM29.4002 10.5815C28.7492 10.9638 27.9122 11.155 26.8892 11.155C25.8662 11.155 25.0034 10.8088 24.3007 10.1165C23.5981 9.41383 23.2467 8.44767 23.2467 7.218C23.2467 5.978 23.5826 4.98083 24.2542 4.2265C24.9362 3.47217 25.7939 3.095 26.8272 3.095C27.8606 3.095 28.6562 3.3585 29.2142 3.8855C29.7826 4.4125 30.0667 5.05317 30.0667 5.8075C30.0667 7.4815 29.1057 8.3185 27.1837 8.3185H26.1142C26.1142 8.6285 26.1969 8.8455 26.3622 8.9695C26.5379 9.08317 26.7911 9.14 27.1217 9.14C27.8451 9.14 28.5322 8.97467 29.1832 8.644C29.1936 8.63367 29.2401 8.706 29.3227 8.861C29.5707 9.30533 29.6947 9.6825 29.6947 9.9925C29.6947 10.2922 29.5966 10.4885 29.4002 10.5815ZM27.4627 6.102C27.4627 5.668 27.2509 5.451 26.8272 5.451C26.6309 5.451 26.4604 5.513 26.3157 5.637C26.1814 5.75067 26.1142 5.92117 26.1142 6.1485V6.629H26.9512C27.2922 6.629 27.4627 6.45333 27.4627 6.102ZM37.4033 10.5815C36.7523 10.9638 35.9153 11.155 34.8923 11.155C33.8693 11.155 33.0065 10.8088 32.3038 10.1165C31.6012 9.41383 31.2498 8.44767 31.2498 7.218C31.2498 5.978 31.5857 4.98083 32.2573 4.2265C32.9393 3.47217 33.797 3.095 34.8303 3.095C35.8637 3.095 36.6593 3.3585 37.2173 3.8855C37.7857 4.4125 38.0698 5.05317 38.0698 5.8075C38.0698 7.4815 37.1088 8.3185 35.1868 8.3185H34.1173C34.1173 8.6285 34.2 8.8455 34.3653 8.9695C34.541 9.08317 34.7942 9.14 35.1248 9.14C35.8482 9.14 36.5353 8.97467 37.1863 8.644C37.1967 8.63367 37.2432 8.706 37.3258 8.861C37.5738 9.30533 37.6978 9.6825 37.6978 9.9925C37.6978 10.2922 37.5997 10.4885 37.4033 10.5815ZM35.4658 6.102C35.4658 5.668 35.254 5.451 34.8303 5.451C34.634 5.451 34.4635 5.513 34.3188 5.637C34.1845 5.75067 34.1173 5.92117 34.1173 6.1485V6.629H34.9543C35.2953 6.629 35.4658 6.45333 35.4658 6.102ZM42.7869 10.907C42.7869 10.9793 42.4149 11.0155 41.6709 11.0155C40.6376 10.9845 40.1209 10.9277 40.1209 10.845V5.823H39.7179C39.4492 5.823 39.2736 5.59567 39.1909 5.141C39.1702 5.00667 39.1599 4.87233 39.1599 4.738C39.1599 4.41767 39.2219 4.09733 39.3459 3.777C39.5319 3.32233 39.8212 3.095 40.2139 3.095C40.6066 3.095 40.9579 3.188 41.2679 3.374C41.5779 3.56 41.7846 3.746 41.8879 3.932C42.5389 3.374 43.3139 3.095 44.2129 3.095C45.1119 3.095 45.7629 3.33783 46.1659 3.8235C46.5689 4.30917 46.7704 5.10483 46.7704 6.2105V10.8605C46.7704 10.9845 46.3261 11.0465 45.4374 11.0465C44.5591 11.0465 44.1199 10.9845 44.1199 10.8605V6.381C44.1199 5.86433 43.9391 5.606 43.5774 5.606C43.4741 5.606 43.3294 5.6525 43.1434 5.7455C42.9574 5.82817 42.8386 5.89017 42.7869 5.9315V10.907Z" fill="#0D208C" fill-opacity="0.8"/>
</svg>
